<svg width="288" height="288" xmlns="http://www.w3.org/2000/svg" version="1.1">

 <g>
  <title>Layer 1</title>
  <g id="svg_8">
   <g id="svg_5">
    <g y="-3" x="-29" stroke="null" id="SvgjsG1008">
     <svg y="-2" x="-2.33186" stroke="null" id="svg_1" viewBox="0 0 400 485" height="288" width="288" xmlns="http://www.w3.org/2000/svg">
      <path stroke="null" id="svg_2" class="color000 svgShape" fill="#071a52" d="m34.166,12.086c-0.094,0.091 -0.731,0.253 -1.416,0.359c-3.211,0.501 -8.919,5.77 -9.455,8.728c-0.148,0.82 -0.47,1.491 -0.715,1.491c-0.245,0 -0.335,0.111 -0.2,0.246c0.135,0.136 -0.005,0.498 -0.313,0.805c-0.476,0.476 -0.561,10.915 -0.573,70.231l-0.014,69.672l1.716,1.861c1.482,1.607 1.903,1.846 3.078,1.751c1.922,-0.156 3.201,-0.622 2.927,-1.066c-0.129,-0.208 -0.087,-0.332 0.094,-0.274c0.769,0.245 2.767,-0.99 3.405,-2.107c0.381,-0.666 0.834,-1.123 1.007,-1.016c0.173,0.107 0.735,-0.418 1.248,-1.167c0.513,-0.749 1.178,-1.361 1.478,-1.361c0.3,0 0.545,-0.151 0.545,-0.336c0,-0.448 4.029,-4.635 4.46,-4.635c0.186,0 0.559,-0.447 0.829,-0.994c0.27,-0.546 0.89,-1.17 1.378,-1.386c0.488,-0.216 0.888,-0.54 0.888,-0.721c0,-0.504 6.675,-6.989 6.931,-6.733c0.124,0.124 0.226,0.035 0.226,-0.199c0,-0.233 0.593,-1.023 1.318,-1.756c0.726,-0.732 1.446,-1.671 1.6,-2.085c0.155,-0.414 0.398,-0.636 0.541,-0.493c0.344,0.345 2.107,-1.332 2.107,-2.004c0,-0.29 0.22,-0.527 0.489,-0.527c0.53,0 3.403,-2.915 4.07,-4.131c0.226,-0.412 0.527,-0.681 0.668,-0.596c0.409,0.246 1.931,-1.3 1.931,-1.962c0,-0.33 0.118,-0.482 0.263,-0.337c0.278,0.277 2.52,-2.026 2.52,-2.589c0,-0.179 0.272,-0.326 0.605,-0.326c0.332,0 0.8,-0.427 1.038,-0.95c0.238,-0.523 0.841,-1.169 1.339,-1.435c0.499,-0.267 1.135,-0.913 1.415,-1.435c0.279,-0.522 0.598,-0.86 0.707,-0.751c0.255,0.255 1.655,-1 1.655,-1.483c0,-0.2 0.269,-0.633 0.597,-0.961c0.328,-0.328 0.596,-0.484 0.596,-0.347c0,0.137 0.895,-0.631 1.988,-1.708c1.094,-1.076 1.988,-2.154 1.988,-2.394c0,-0.241 0.955,-1.159 2.123,-2.041c1.168,-0.881 2.327,-2.05 2.576,-2.597c0.249,-0.547 0.708,-0.995 1.019,-0.995c0.311,0 0.948,-0.649 1.416,-1.442c0.468,-0.793 0.962,-1.33 1.098,-1.194c0.136,0.136 0.574,-0.289 0.972,-0.944c0.399,-0.655 0.99,-1.191 1.313,-1.191c0.324,0 0.792,-0.403 1.041,-0.895c0.5,-0.99 3.856,-4.274 4.367,-4.274c0.178,0 0.437,-0.358 0.576,-0.796c0.139,-0.437 0.865,-1.262 1.614,-1.833c0.748,-0.571 1.26,-1.202 1.136,-1.402c-0.123,-0.199 -0.077,-0.324 0.103,-0.276c0.506,0.134 4.51,-3.71 4.27,-4.099c-0.117,-0.189 0.201,-0.501 0.706,-0.695c0.968,-0.37 2.678,-2.033 2.09,-2.033c-0.188,0 1.251,-1.598 3.199,-3.552c1.948,-1.955 3.685,-3.465 3.86,-3.357c0.175,0.108 0.318,-0.014 0.318,-0.271c0,-0.257 4.876,-5.362 10.835,-11.344c5.96,-5.982 11.82,-11.903 13.022,-13.156c1.203,-1.254 2.187,-2.206 2.187,-2.117c0,0.089 0.403,-0.182 0.895,-0.603c0.492,-0.422 0.894,-0.995 0.894,-1.274c0,-0.28 0.165,-0.508 0.365,-0.508c0.463,0 7.009,-6.471 6.899,-6.821c-0.044,-0.143 0.216,-0.501 0.579,-0.795c0.565,-0.458 0.611,-0.45 0.321,0.061c-0.187,0.328 0.137,0.163 0.719,-0.368c1.13,-1.029 1.373,-1.454 0.561,-0.979c-0.274,0.16 -0.156,-0.098 0.26,-0.573c0.814,-0.928 1.258,-1.154 0.795,-0.404c-0.177,0.286 -0.109,0.351 0.182,0.171c0.256,-0.158 0.38,-0.427 0.274,-0.597c-0.281,-0.456 1.965,-2.483 2.357,-2.126c0.184,0.167 0.226,0.112 0.094,-0.121c-0.252,-0.444 0.992,-1.941 2.446,-2.944c0.467,-0.321 0.848,-0.813 0.848,-1.093c0,-0.28 0.152,-0.509 0.337,-0.509c0.529,0 2.049,-1.436 2.049,-1.935c0,-0.248 0.165,-0.451 0.367,-0.451c0.617,0 2.801,-2.014 2.705,-2.494c-0.049,-0.248 0.134,-0.482 0.407,-0.519c0.273,-0.038 0.657,-0.09 0.852,-0.118c0.195,-0.027 0.459,-0.466 0.586,-0.975c0.128,-0.51 0.688,-1.134 1.244,-1.387c0.557,-0.254 1.192,-0.935 1.413,-1.515c0.22,-0.58 0.515,-0.939 0.655,-0.799c0.348,0.347 1.711,-0.932 1.711,-1.607c0,-0.298 0.444,-0.745 0.987,-0.992c0.542,-0.248 1.088,-0.771 1.213,-1.164c0.125,-0.393 0.575,-0.826 1.002,-0.961c0.426,-0.135 0.774,-0.502 0.774,-0.815c0,-0.314 0.179,-0.57 0.398,-0.57c0.219,0 0.398,-0.447 0.398,-0.994c0,-0.619 0.225,-0.994 0.596,-0.994c0.63,0 0.667,-0.099 0.746,-1.988c0.027,-0.656 -0.095,-1.193 -0.272,-1.193c-0.177,0 -0.211,-0.179 -0.076,-0.398c0.135,-0.218 -0.021,-0.397 -0.348,-0.397c-0.326,0 -0.706,-0.357 -0.844,-0.793c-0.669,-2.107 4.124,-1.972 -70.726,-1.986c-38.111,-0.007 -69.37,0.062 -69.463,0.153m338.627,8.24c0.124,0.202 -0.457,0.649 -1.293,0.994c-1.871,0.773 -2.975,1.715 -2.642,2.254c0.138,0.223 0.063,0.29 -0.166,0.148c-0.23,-0.142 -0.521,0.011 -0.647,0.34c-0.126,0.328 -0.435,0.551 -0.686,0.494c-0.251,-0.056 -0.763,0.434 -1.137,1.09c-0.374,0.656 -0.845,1.196 -1.046,1.199c-0.631,0.011 -1.381,0.631 -1.171,0.97c0.111,0.179 -0.065,0.547 -0.391,0.817c-0.326,0.27 -0.592,0.373 -0.592,0.228c0,-0.469 -1.789,1.389 -1.807,1.878c-0.01,0.261 -0.21,0.438 -0.445,0.393c-0.234,-0.045 -0.852,0.386 -1.373,0.959c-0.521,0.572 -0.696,0.894 -0.389,0.716c0.376,-0.218 0.465,-0.174 0.275,0.135c-0.157,0.252 -0.453,0.459 -0.658,0.459c-0.433,0 -2.164,1.654 -2.164,2.067c0,0.153 -0.25,0.511 -0.555,0.795c-0.461,0.429 -0.501,0.416 -0.236,-0.079c0.176,-0.328 -0.126,-0.149 -0.671,0.398c-0.545,0.546 -0.976,1.083 -0.957,1.192c0.018,0.11 -0.086,0.199 -0.232,0.199c-0.146,0 -0.988,0.761 -1.872,1.69c-0.885,0.929 -1.775,1.69 -1.979,1.69c-0.401,0 -1.026,1.185 -0.907,1.719c0.04,0.181 -0.092,0.226 -0.293,0.102c-0.201,-0.124 -0.469,0.043 -0.595,0.372c-0.126,0.329 -0.414,0.551 -0.639,0.494c-0.225,-0.056 -0.638,0.345 -0.917,0.891c-0.28,0.547 -0.682,0.997 -0.894,1.001c-0.642,0.01 -1.406,0.624 -1.197,0.962c0.108,0.174 -0.158,0.637 -0.59,1.028c-0.432,0.391 -0.786,0.572 -0.786,0.402c0,-0.17 -0.266,-0.088 -0.592,0.182c-0.326,0.271 -0.509,0.626 -0.407,0.791c0.102,0.165 -0.199,0.637 -0.669,1.048c-0.554,0.486 -0.738,0.54 -0.523,0.153c0.182,-0.328 -0.139,-0.168 -0.715,0.356c-0.575,0.524 -0.964,1.085 -0.863,1.247c0.1,0.162 -0.085,0.516 -0.41,0.786c-0.326,0.271 -0.592,0.347 -0.592,0.169c0,-0.463 -1.786,1.518 -1.808,2.005c-0.009,0.224 -0.209,0.37 -0.444,0.325c-0.478,-0.092 -2.376,1.788 -2.221,2.202c0.054,0.146 -0.035,0.27 -0.199,0.274c-0.539,0.016 -6.859,6.356 -6.859,6.881c0,0.283 -0.153,0.419 -0.34,0.304c-0.342,-0.212 -1.892,1.214 -2.121,1.952c-0.068,0.219 -0.236,0.36 -0.374,0.314c-0.138,-0.046 -1.319,1.028 -2.626,2.386c-1.306,1.358 -3.251,3.259 -4.322,4.225c-1.071,0.965 -7.052,6.781 -13.291,12.922c-6.24,6.142 -18.452,18.145 -27.139,26.674c-8.686,8.529 -20.246,19.891 -25.687,25.248c-5.441,5.358 -16.477,16.183 -24.523,24.056c-8.046,7.873 -19.047,18.698 -24.447,24.056c-5.399,5.358 -12.122,11.968 -14.939,14.689c-35.377,34.172 -38.961,38.15 -38.059,42.24c0.163,0.741 0.118,0.806 -0.228,0.327c-0.324,-0.448 -0.358,-0.25 -0.134,0.795c0.164,0.766 0.298,2.331 0.298,3.48c0,1.148 0.153,2.087 0.34,2.087c0.188,0 0.24,0.263 0.117,0.584c-0.123,0.321 -0.075,0.675 0.107,0.788c0.181,0.112 0.33,0.644 0.33,1.182c0,1.056 1.13,2.754 3.181,4.776c0.711,0.702 1.292,1.486 1.292,1.744c0,0.258 0.173,0.469 0.384,0.469c0.211,0 2.805,2.419 5.765,5.375c2.96,2.957 5.383,5.238 5.384,5.07c0,-0.168 0.356,0.275 0.789,0.986c0.433,0.711 1.067,1.292 1.409,1.292c0.341,0 0.925,0.536 1.298,1.191c0.372,0.654 0.883,1.191 1.135,1.193c0.252,0.001 0.83,0.584 1.286,1.294c0.455,0.711 0.83,1.152 0.834,0.98c0.004,-0.172 1.125,0.831 2.492,2.229c1.367,1.398 2.798,2.652 3.181,2.786c0.382,0.133 0.695,0.489 0.695,0.79c0,0.689 1.365,1.956 1.723,1.599c0.146,-0.146 0.266,-0.012 0.266,0.298c0,0.608 9.207,9.838 9.486,9.509c0.092,-0.109 0.367,0.152 0.609,0.58c0.621,1.095 1.352,1.846 1.719,1.766c0.172,-0.038 0.476,0.282 0.675,0.711c0.2,0.429 0.871,1.071 1.491,1.427c0.621,0.357 1.129,0.895 1.129,1.196c0,0.301 0.447,0.787 0.994,1.08c0.547,0.292 0.994,0.656 0.994,0.808c0,0.523 2.085,2.36 2.434,2.144c0.192,-0.119 0.349,-0.031 0.349,0.195c0,0.575 6.525,7.191 7.092,7.191c0.254,0 0.463,0.24 0.463,0.534c0,0.59 1.586,2.193 1.597,1.615c0.004,-0.198 0.379,0.221 0.834,0.932c0.455,0.711 1.069,1.292 1.363,1.292c0.294,0 0.852,0.537 1.239,1.193c0.388,0.656 0.94,1.193 1.228,1.193c0.288,0 0.643,0.313 0.789,0.696c0.348,0.915 3.691,4.265 4.58,4.591c0.383,0.14 0.696,0.413 0.696,0.607c0,0.513 3.479,4.013 3.735,3.757c0.119,-0.119 0.535,0.346 0.924,1.032c0.39,0.686 1.023,1.349 1.406,1.473c0.384,0.123 0.958,0.704 1.276,1.291c0.319,0.586 0.587,0.897 0.595,0.691c0.009,-0.206 1.236,0.912 2.727,2.485c1.491,1.573 2.88,2.86 3.087,2.86c0.206,0 0.552,0.402 0.768,0.893c0.216,0.491 0.885,1.127 1.486,1.413c0.601,0.287 1.093,0.714 1.093,0.95c0,0.483 1.532,1.913 2.049,1.913c0.185,0 0.337,0.192 0.337,0.426c0,0.559 1.036,1.587 1.316,1.307c0.12,-0.12 0.633,0.423 1.141,1.207c0.507,0.783 1.142,1.426 1.41,1.429c0.267,0.003 0.763,0.54 1.102,1.195c0.338,0.654 0.746,1.146 0.905,1.093c0.16,-0.053 2.588,2.185 5.397,4.973c2.809,2.789 5.236,5.07 5.395,5.07c0.414,0 2.227,2.13 2.115,2.485c-0.051,0.164 0.131,0.302 0.404,0.306c0.273,0.005 3.838,3.36 7.921,7.456c4.084,4.096 8.423,8.409 9.642,9.585c1.22,1.176 2.218,2.305 2.218,2.509c0,0.203 0.173,0.263 0.384,0.133c0.212,-0.131 0.793,0.393 1.293,1.164c0.499,0.771 1.059,1.404 1.244,1.407c0.185,0.002 3.624,3.315 7.642,7.361c4.019,4.045 7.49,7.355 7.716,7.355c0.225,0 0.409,0.177 0.409,0.393c0,0.605 1.308,1.993 1.878,1.993c0.279,0 0.508,0.23 0.508,0.511c0,0.281 0.547,0.834 1.216,1.229c0.669,0.395 1.387,1.167 1.596,1.715c0.208,0.548 0.748,1.092 1.199,1.21c0.452,0.119 0.991,0.663 1.199,1.21c0.208,0.547 0.49,0.883 0.626,0.747c0.302,-0.302 2.116,1.594 2.116,2.212c0,0.244 0.098,0.346 0.217,0.227c0.12,-0.12 3.698,3.284 7.953,7.565c4.254,4.28 7.735,7.616 7.735,7.414c0,-0.202 0.452,0.298 1.005,1.112c0.554,0.814 1.14,1.437 1.303,1.385c0.164,-0.053 1.545,1.225 3.07,2.838c1.525,1.614 3.64,3.761 4.701,4.772c1.06,1.01 5.199,5.103 9.198,9.094c3.998,3.991 7.474,7.256 7.724,7.256c0.249,0 0.626,0.452 0.836,1.005c0.21,0.552 0.752,1.141 1.204,1.309c0.453,0.167 1.04,0.744 1.305,1.281c0.266,0.538 0.873,1.15 1.349,1.361c0.476,0.211 1.083,0.789 1.349,1.285c0.265,0.497 0.783,0.998 1.15,1.115c0.368,0.117 0.905,0.653 1.193,1.193c0.289,0.539 0.827,1.077 1.197,1.194c0.369,0.117 0.873,0.657 1.12,1.199c0.247,0.543 0.629,0.987 0.848,0.987c0.22,0 1.562,1.118 2.983,2.485c4.407,4.239 5.534,5.173 6.972,5.774c1.649,0.689 3.633,0.895 3.291,0.342c-0.139,-0.224 0.04,-0.28 0.427,-0.131c0.781,0.3 3.643,-2.255 3.246,-2.897c-0.137,-0.223 -0.09,-0.404 0.105,-0.404c0.611,0 0.709,-444.172 0.098,-445.313c-0.208,-0.388 -0.265,-0.819 -0.127,-0.957c0.138,-0.138 0.042,-0.251 -0.213,-0.251c-0.255,0 -0.419,-0.158 -0.364,-0.35c0.379,-1.334 -1.674,-2.723 -4.047,-2.738c-1.376,-0.008 -2.315,0.143 -2.186,0.352m-348.705,300.351c-1.284,0.865 -2.504,2.71 -2.63,3.975c-0.487,4.918 0.1,144.563 0.61,145.073c0.328,0.328 0.597,0.922 0.598,1.32c0.004,1.368 3.778,6.49 4.782,6.49c0.225,0 0.517,0.278 0.647,0.618c0.131,0.34 1.064,1.001 2.075,1.469c1.011,0.468 1.957,1.025 2.102,1.239c0.863,1.268 145.956,0.951 146.885,-0.321c0.311,-0.424 0.565,-0.641 0.565,-0.481c0,0.159 0.38,-0.064 0.845,-0.497c1.201,-1.12 1.146,-6.799 -0.067,-6.799c-0.198,0 -0.617,-0.492 -0.931,-1.093c-0.702,-1.344 -3.913,-4.87 -4.436,-4.872c-0.21,-0.001 -0.739,-0.537 -1.177,-1.192c-0.437,-0.654 -0.976,-1.191 -1.198,-1.191c-0.221,-0.001 -0.579,-0.404 -0.795,-0.896c-0.216,-0.492 -0.764,-1.058 -1.217,-1.257c-0.454,-0.2 -1.126,-0.888 -1.495,-1.529c-0.368,-0.642 -1.026,-1.26 -1.461,-1.374c-0.436,-0.114 -0.792,-0.348 -0.792,-0.52c0,-0.454 -8.705,-9.137 -9.16,-9.137c-0.211,0 -0.383,-0.201 -0.383,-0.446c0,-0.245 -2.818,-3.28 -6.262,-6.744c-3.444,-3.464 -7.016,-7.089 -7.937,-8.055c-0.921,-0.966 -1.95,-1.861 -2.286,-1.991c-0.337,-0.129 -0.612,-0.478 -0.612,-0.776c0,-0.298 -0.403,-0.763 -0.895,-1.034c-0.492,-0.27 -1.789,-1.541 -2.882,-2.824c-1.094,-1.283 -2.302,-2.446 -2.684,-2.584c-0.383,-0.139 -0.696,-0.432 -0.696,-0.651c0,-0.461 -0.997,-1.535 -1.425,-1.535c-0.386,0 -3.347,-3.224 -3.347,-3.645c0,-0.182 -0.155,-0.332 -0.345,-0.332c-0.375,0 -3.561,-3.154 -6.412,-6.347c-0.983,-1.101 -2.041,-2.002 -2.352,-2.002c-0.311,0 -0.444,-0.122 -0.295,-0.271c0.336,-0.336 -1.702,-2.513 -2.353,-2.513c-0.262,0 -0.569,-0.355 -0.683,-0.79c-0.113,-0.435 -0.672,-0.968 -1.242,-1.184c-0.569,-0.217 -0.989,-0.543 -0.933,-0.726c0.056,-0.182 -5.936,-6.363 -13.317,-13.735c-7.381,-7.371 -13.419,-13.539 -13.419,-13.706c0,-0.167 -0.526,-0.614 -1.169,-0.994c-0.643,-0.38 -1.281,-1.044 -1.419,-1.477c-0.137,-0.433 -0.388,-0.787 -0.558,-0.787c-0.169,0 -1.186,-0.9 -2.259,-1.999c-1.073,-1.099 -8.517,-8.561 -16.541,-16.583c-8.024,-8.022 -14.788,-14.951 -15.03,-15.397c-0.243,-0.447 -1.148,-1.339 -2.011,-1.982c-0.864,-0.644 -1.57,-1.404 -1.57,-1.69c0,-0.286 -0.137,-0.52 -0.304,-0.52c-0.293,0 -4.722,-4.219 -6.929,-6.6c-0.588,-0.634 -1.393,-1.455 -1.789,-1.824c-1.126,-1.049 -4.127,-3.969 -5.558,-5.408c-1.346,-1.354 -3.82,-2.626 -4.256,-2.19c-0.137,0.137 -0.25,0.086 -0.25,-0.115c0,-0.657 -2.14,-0.381 -3.347,0.432m298.468,167.27c0.246,0.738 1.102,0.86 1.102,0.158c0,-0.347 -0.283,-0.63 -0.63,-0.63c-0.346,0 -0.558,0.213 -0.472,0.472m5.873,0.125c0,0.328 0.269,0.596 0.597,0.596c0.328,0 0.596,-0.268 0.596,-0.596c0,-0.328 -0.268,-0.597 -0.596,-0.597c-0.328,0 -0.597,0.269 -0.597,0.597m-3.535,2.286c0.491,0.711 0.949,1.366 1.019,1.455c0.235,0.305 1.641,-1.204 1.843,-1.978c0.179,-0.685 -0.016,-0.769 -1.777,-0.769l-1.977,0l0.892,1.292m11.09,2.883c0,3.764 0.004,3.777 0.994,3.777c0.835,0 0.994,-0.187 0.994,-1.169c0,-1.716 0.57,-1.786 1.765,-0.219c1.305,1.71 4.715,2.099 5.193,0.593c0.174,-0.548 0.602,-0.796 1.372,-0.796c0.786,0 1.182,0.238 1.328,0.796c0.14,0.536 0.542,0.795 1.234,0.795l1.025,0l-0.842,-2.088c-0.463,-1.148 -1.011,-2.847 -1.219,-3.777c-0.333,-1.493 -0.507,-1.69 -1.484,-1.69c-1.169,0 -1.034,-0.233 -2.873,4.97c-0.62,1.756 -1.102,1.935 -1.757,0.654c-0.238,-0.466 -0.745,-1.191 -1.126,-1.613c-0.659,-0.728 -0.657,-0.802 0.036,-1.527c1.695,-1.773 1.844,-2.484 0.52,-2.484c-0.791,0 -1.295,0.241 -1.459,0.696c-0.635,1.768 -1.713,2.216 -1.713,0.711c0,-1.236 -0.121,-1.407 -0.994,-1.407c-0.99,0 -0.994,0.013 -0.994,3.778m14.314,0c0,3.764 0.004,3.777 0.994,3.777c0.84,0 0.994,-0.186 0.994,-1.193c0,-0.827 0.195,-1.193 0.635,-1.193c1.549,0 2.944,-1.322 2.944,-2.789c0,-1.956 -0.58,-2.38 -3.261,-2.38l-2.306,0l0,3.778m6.205,-2.287c0.357,0.82 0.837,2.028 1.068,2.684c1.057,3.005 1.289,3.38 2.088,3.38c0.582,0 0.971,-0.425 1.349,-1.47l0.532,-1.47l0.442,1.371c1.004,3.103 2.693,1.475 4.418,-4.258l0.52,-1.728l-1.102,0c-1.03,0 -1.133,0.157 -1.572,2.386c-0.511,2.599 -0.61,2.738 -1.182,1.669c-0.273,-0.51 -0.169,-1.195 0.364,-2.385l0.748,-1.67l-1.174,0c-1.007,0 -1.177,0.155 -1.204,1.094l-0.032,1.093l-0.399,-1.093c-0.284,-0.777 -0.675,-1.094 -1.351,-1.094c-0.856,0 -0.912,0.102 -0.563,1.02c0.213,0.561 0.376,1.59 0.362,2.286c-0.024,1.128 -0.12,1.015 -0.873,-1.019c-0.756,-2.043 -0.965,-2.287 -1.967,-2.287l-1.121,0l0.649,1.491m11.29,2.287c0,3.764 0.004,3.777 0.994,3.777c0.991,0 0.994,-0.013 0.994,-3.777c0,-3.765 -0.003,-3.778 -0.994,-3.778c-0.99,0 -0.994,0.013 -0.994,3.778m3.181,0c0,3.764 0.004,3.777 0.994,3.777c0.913,0 0.994,-0.146 0.994,-1.789c0,-0.984 0.179,-1.79 0.398,-1.79c0.219,0 0.397,0.173 0.397,0.384c0,0.74 2.476,3.195 3.223,3.195c0.687,0 0.754,-0.334 0.754,-3.777c0,-3.742 -0.01,-3.778 -0.973,-3.778c-0.877,0 -0.984,0.184 -1.093,1.889l-0.121,1.889l-1.369,-1.889c-2.371,-3.271 -3.204,-2.78 -3.204,1.889m8.662,-3.082c-2.802,3.212 -0.331,7.905 3.413,6.481c0.673,-0.256 1.046,-0.259 1.046,-0.01c0,0.213 0.358,0.388 0.796,0.388c0.689,0 0.795,-0.265 0.795,-1.988l0,-1.988l-1.777,0c-1.416,0 -1.73,0.121 -1.548,0.596c0.126,0.328 0.489,0.597 0.806,0.597c0.318,0 0.467,0.179 0.332,0.397c-0.34,0.55 -1.926,0.499 -2.505,-0.079c-1.453,-1.453 0.088,-3.869 2.003,-3.141c1.396,0.53 2.431,-0.145 1.791,-1.17c-0.66,-1.058 -4.252,-1.116 -5.152,-0.083m-25.759,1.889c0,0.331 -0.354,0.596 -0.795,0.596c-0.442,0 -0.796,-0.265 -0.796,-0.596c0,-0.332 0.354,-0.597 0.796,-0.597c0.441,0 0.795,0.265 0.795,0.597m-7.44,0.994c0.13,0.497 0.012,0.795 -0.314,0.795c-0.326,0 -0.444,-0.298 -0.314,-0.795c0.115,-0.438 0.256,-0.795 0.314,-0.795c0.059,0 0.2,0.357 0.314,0.795" fill-rule="evenodd"/>
     </svg>
    </g>
   </g>
  </g>
 </g>
</svg>